# File created by Blade
# Date/Time:  Wed Sep 24 19:53:44 2014
# Frame Rate: 120.000 fps
#------------------------------------------------------
:FULLY-SPECIFIED
:DEGREES
2087
root -6.142241 32.862989 -3.903335 9.173905 9.486102 -0.300681
Spine -15.534001 5.512384 1.216887
Head -1.515158 5.626887 14.288956
LeftShoulder -10.771950 9.030990 29.657298
LeftArm 19.927862 -78.436708 -30.889180
LeftForeArm -53.726851 -0.000000 37.677712
LeftHand -9.242395 -0.000000 -8.822008
LeftHandThumb1 -26.253704 0.000000 33.147579
RightShoulder -19.454278 12.017693 -15.018878
RightArm -11.536831 -12.686625 78.064238
RightForeArm -21.875745 0.000000 19.332604
RightHand -7.617036 -0.000000 9.599991
RightHandThumb1 -24.326973 -0.000000 -32.862282
LeftUpLeg -3.228021 4.083099 4.724039
LeftLeg -2.713277 -0.000000 0.000000
LeftFoot -7.669880 1.839125 -18.697645
LeftToeBase 11.555107 -0.000000 -0.000000
RightUpLeg -2.592926 -11.866754 -2.769961
RightLeg 1.253309 -0.000000 -0.000000
RightFoot -7.380384 -7.180142 -12.108237
RightToeBase -0.701570 -0.000000 0.000000
2088
root -6.142479 32.863665 -3.903569 9.146564 9.530107 -0.287693
Spine -15.511909 5.489330 1.268119
Head -1.537003 5.640304 14.172405
LeftShoulder -10.713415 8.907236 29.716558
LeftArm 18.369304 -77.116264 -28.948355
LeftForeArm -54.322858 -0.000000 34.649938
LeftHand -9.330879 -0.000000 -8.642879
LeftHandThumb1 -26.253704 0.000000 33.147579
RightShoulder -19.439366 12.038558 -15.022944
RightArm -11.529276 -12.722389 78.077817
RightForeArm -21.808786 -0.000000 19.298077
RightHand -7.560420 -0.000000 9.607254
RightHandThumb1 -24.326973 -0.000000 -32.862282
LeftUpLeg -3.204355 4.067986 4.718185
LeftLeg -2.720783 -0.000000 0.000000
LeftFoot -7.643444 1.815184 -18.704555
LeftToeBase 11.543634 -0.000000 -0.000000
RightUpLeg -2.559714 -11.882232 -2.783794
RightLeg 1.261995 -0.000000 -0.000000
RightFoot -7.384476 -7.204698 -12.087734
RightToeBase -0.701619 -0.000000 0.000000
2089
root -6.142364 32.864155 -3.904627 9.120341 9.572887 -0.271326
Spine -15.487956 5.464766 1.325977
Head -1.552725 5.670048 14.042634
LeftShoulder -10.673317 8.897498 29.755579
LeftArm 17.363867 -75.787233 -27.579995
LeftForeArm -55.041816 0.000000 31.642417
LeftHand -9.569790 0.000000 -8.511430
LeftHandThumb1 -26.253704 0.000000 33.147579
RightShoulder -19.433051 12.068086 -15.045605
RightArm -11.527458 -12.732151 78.103867
RightForeArm -21.782196 -0.000000 19.272260
RightHand -7.541709 0.000000 9.631553
RightHandThumb1 -24.326973 -0.000000 -32.862282
LeftUpLeg -3.186090 4.033940 4.708614
LeftLeg -2.717242 -0.000000 0.000000
LeftFoot -7.629401 1.808720 -18.699458
LeftToeBase 11.553361 -0.000000 -0.000000
RightUpLeg -2.528951 -11.893240 -2.800718
RightLeg 1.270798 -0.000000 -0.000000
RightFoot -7.376881 -7.240621 -12.089511
RightToeBase -0.728558 -0.000000 0.000000
2090
root -6.142307 32.864879 -3.905204 9.089751 9.614073 -0.253983
Spine -15.462073 5.433807 1.376031
Head -1.562680 5.697163 13.937238
LeftShoulder -10.642202 8.887881 29.801253
LeftArm 16.674971 -74.345189 -26.518832
LeftForeArm -55.813540 -0.000000 28.608200
LeftHand -9.690718 -0.000000 -8.195024
LeftHandThumb1 -26.253704 0.000000 33.147579
RightShoulder -19.421454 12.062326 -15.040578
RightArm -11.480418 -12.740990 78.113857
RightForeArm -21.769970 0.000000 19.235181
RightHand -7.485851 -0.000000 9.660586
RightHandThumb1 -24.326973 -0.000000 -32.862282
LeftUpLeg -3.157433 3.999258 4.698045
LeftLeg -2.729118 -0.000000 0.000000
LeftFoot -7.597872 1.809761 -18.669582
LeftToeBase 11.523637 -0.000000 -0.000000
RightUpLeg -2.492500 -11.900293 -2.819651
RightLeg 1.278623 -0.000000 -0.000000
RightFoot -7.383634 -7.275832 -12.104831
RightToeBase -0.698810 -0.000000 0.000000
2091
root -6.141853 32.865731 -3.905938 9.060068 9.643505 -0.244931
Spine -15.443383 5.405920 1.433133
Head -1.563862 5.726315 13.855118
LeftShoulder -10.536238 8.705208 29.836571
LeftArm 15.683960 -72.848849 -25.170886
LeftForeArm -56.832180 0.000000 25.658832
LeftHand -10.091343 0.000000 -8.186247
LeftHandThumb1 -26.253704 0.000000 33.147579
RightShoulder -19.385415 12.109941 -15.040501
RightArm -11.508709 -12.753437 78.115371
RightForeArm -21.722630 -0.000000 19.231775
RightHand -7.482046 -0.000000 9.658333
RightHandThumb1 -24.326973 -0.000000 -32.862282
LeftUpLeg -3.130290 3.996424 4.692044
LeftLeg -2.738876 -0.000000 0.000000
LeftFoot -7.560218 1.786118 -18.678760
LeftToeBase 11.517384 -0.000000 -0.000000
RightUpLeg -2.456812 -11.884749 -2.833506
RightLeg 1.277542 -0.000000 -0.000000
RightFoot -7.363410 -7.313919 -12.072116
RightToeBase -0.738831 -0.000000 0.000000
